<svg xmlns="http://www.w3.org/2000/svg" viewBox="0 0 40.16 32.93"><defs><style>.cls-1{fill:#010101;}</style></defs><title>chocolat</title><g id="Calque_2" data-name="Calque 2"><g id="Accueil"><g id="header"><path class="cls-1" d="M9,13.57A1,1,0,0,0,10.24,13a11.07,11.07,0,0,1,2.35-3.61,10.38,10.38,0,0,1,7.49-3.2,1,1,0,1,0,0-1.92,12.29,12.29,0,0,0-8.86,3.78,13,13,0,0,0-2.76,4.23A1,1,0,0,0,9,13.57Z"/><path class="cls-1" d="M39.81,20.25a1,1,0,0,0-1.09-.09l-1.75,1V17.32A17.13,17.13,0,0,0,20.08,0,17.13,17.13,0,0,0,3.19,17.32v3.85l-1.75-1A1,1,0,0,0,.05,21.31l3.84,11a1,1,0,0,0,.91.64H35.35a1,1,0,0,0,.91-.64l3.84-11A1,1,0,0,0,39.81,20.25ZM20.08,1.92a15.21,15.21,0,0,1,15,15.41v3.85l-1.74-1-.11-.06h0l-.08,0H33L33,20h-.27l-.1,0h0l-.11,0h0l-.08,0h0l-2.7,1.57-2.7-1.57h0l-.11-.05h0l-.09,0h0l-.09,0h-.29l-.09,0h0l-.11,0h0l-.09,0h0l-2.7,1.57-2.71-1.57h0l-.11-.05h0l-.11,0h0l-.09,0h-.29l-.09,0h0l-.11,0h0l-.11.05h0l-2.71,1.57-2.7-1.57h0l-.1,0h0l-.11,0h0l-.1,0h-.29l-.08,0h0l-.09,0h0l-.11.05h0l-2.7,1.57-2.7-1.57h0l-.08,0h0l-.11,0h0l-.1,0H7.2l-.08,0H7.06L7,20.1H7l-.11.06-1.74,1V17.32A15.21,15.21,0,0,1,20.08,1.92ZM26.25,31l1-8.46,1.92,1.12a1,1,0,0,0,1,0l1.27-.74L29.5,31ZM21,31V22.66l1.75,1a1,1,0,0,0,1,0l1.53-.89-1,8.23H21Zm-5.2,0-1-8.23,1.53.89a1,1,0,0,0,1,0l1.75-1V31H15.84Zm-5.18,0L8.77,22.94l1.27.74a1,1,0,0,0,1,0l1.92-1.12,1,8.46ZM2.72,23.13l.94.55h0l.11.05h0l.11,0h0l.09,0h.29l.09,0h0l.11,0h0l.11-.05h0l2.06-1.2,2,8.54H5.48Zm32,7.89h-3.2l2-8.54,2.06,1.2h0a1,1,0,0,0,.22.09h0l.09,0h.29l.08,0h0l.09,0h0l.1,0h0l.94-.55Z"/></g></g></g></svg>