<svg xmlns="http://www.w3.org/2000/svg" viewBox="0 0 57.72 31.79"><defs><style>.cls-1{fill:#010101;}</style></defs><title>croissant</title><g id="Calque_2" data-name="Calque 2"><g id="Accueil"><g id="header"><path class="cls-1" d="M56.74,22.79c-1-1.88-2.11-3.75-3.24-5.58l.7-.61a2.52,2.52,0,0,0,.88-1.73,2.72,2.72,0,0,0-.69-2A25.12,25.12,0,0,0,42.1,5.32a2.78,2.78,0,0,0-1.61-2.65A25.9,25.9,0,0,0,28.87,0h0A25.88,25.88,0,0,0,17.23,2.67a2.78,2.78,0,0,0-1.61,2.65A25.11,25.11,0,0,0,3.32,12.88a2.72,2.72,0,0,0-.69,2,2.52,2.52,0,0,0,.88,1.73l.7.61C3.08,19,2,20.92,1,22.79a7.87,7.87,0,0,0-.72,5.76,4.3,4.3,0,0,0,2.8,3,4.39,4.39,0,0,0,1.41.23,4.54,4.54,0,0,0,2.75-.94c2.07-1.58,4.23-3.09,6.44-4.5a2.75,2.75,0,0,0,1.38.37,2.79,2.79,0,0,0,1.12-.24c1.42-.62,2.87-1.21,4.31-1.76a2.77,2.77,0,0,0,1.94.62h0a94.13,94.13,0,0,1,12.9,0h.19a2.77,2.77,0,0,0,1.75-.62c1.45.55,2.89,1.14,4.31,1.76a2.79,2.79,0,0,0,1.12.24,2.75,2.75,0,0,0,1.38-.37c2.2,1.41,4.37,2.92,6.44,4.5a4.54,4.54,0,0,0,2.76.94,4.39,4.39,0,0,0,1.41-.23,4.3,4.3,0,0,0,2.8-3A7.86,7.86,0,0,0,56.74,22.79ZM6.08,29.36a2.59,2.59,0,0,1-2.43.42,2.45,2.45,0,0,1-1.59-1.71,6,6,0,0,1,.56-4.39c1-1.75,2-3.5,3-5.21,2.3,2.09,4.52,4.28,6.63,6.54C10.15,26.38,8.07,27.84,6.08,29.36Zm9.32-4.6a.88.88,0,0,1-1-.2l0,0h0a112.06,112.06,0,0,0-8.3-8.19l0,0L4.73,15.19a.65.65,0,0,1-.24-.45.87.87,0,0,1,.24-.63A23.21,23.21,0,0,1,16,7.15c1.25,5.27,2.42,10.62,3.48,15.93C18.13,23.61,16.75,24.17,15.4,24.77Zm21-2a.87.87,0,0,1-.92.68c-2.18-.15-4.38-.23-6.58-.23s-4.4.08-6.58.23a.87.87,0,0,1-.93-.68C20.19,16.95,18.89,11,17.49,5.25a.88.88,0,0,1,.58-.91A24,24,0,0,1,28.84,1.87h0A24,24,0,0,1,39.65,4.34a.88.88,0,0,1,.58.91C38.83,11,37.53,16.95,36.36,22.79Zm7,1.78a.88.88,0,0,1-1,.2c-1.35-.59-2.72-1.15-4.1-1.68,1.06-5.3,2.23-10.65,3.48-15.93a23.21,23.21,0,0,1,11.29,7,.87.87,0,0,1,.24.63.65.65,0,0,1-.24.45l-1.33,1.16,0,0A112.12,112.12,0,0,0,43.32,24.57Zm12.34,3.5a2.46,2.46,0,0,1-1.59,1.72,2.59,2.59,0,0,1-2.43-.42c-2-1.52-4.07-3-6.18-4.35,2.1-2.26,4.32-4.45,6.63-6.54,1.05,1.71,2.06,3.46,3,5.21A6,6,0,0,1,55.66,28.06Z"/></g></g></g></svg>