<svg xmlns="http://www.w3.org/2000/svg" viewBox="0 0 30.08 40.94"><defs><style>.cls-1{fill:#231f20;}</style></defs><title>cupcake</title><g id="Calque_2" data-name="Calque 2"><g id="Accueil"><g id="header"><path class="cls-1" d="M29,24h0a5.19,5.19,0,0,0,1.15-3.24c0-1.78-1.1-3.53-3.17-5.19a4.41,4.41,0,0,0,.16-2.3c-.6-3-3.84-4.17-6.81-4.83A3.84,3.84,0,0,0,18.42,4c1.19-2.41,2.77-2.68,3.41-2.68a3.43,3.43,0,0,1,1.62.33A.66.66,0,1,0,24.07.49,4.71,4.71,0,0,0,21.83,0a4.59,4.59,0,0,0-3.45,1.69,8,8,0,0,0-1.23,1.89,3.84,3.84,0,0,0-3.93,1.93,4.3,4.3,0,0,1-.69-1,.66.66,0,0,0-.92-.29,10.09,10.09,0,0,0-4.3,4.4,8.92,8.92,0,0,0-.89,3.8l-.16.07a4.56,4.56,0,0,0-2.86,4,7.31,7.31,0,0,0,.12,1.94A3.84,3.84,0,0,0,1.19,24H.66a.66.66,0,0,0-.65.81L3.3,39.32a2.07,2.07,0,0,0,2,1.62h19a2.07,2.07,0,0,0,2-1.62L29.6,24.86A.66.66,0,0,0,29,24ZM16.58,4.86a2.52,2.52,0,1,1-2.52,2.52A2.52,2.52,0,0,1,16.58,4.86ZM5.33,39.61A.75.75,0,0,1,4.6,39L1.49,25.38H3.64L6,39.28a2.46,2.46,0,0,0,.08.33Zm2.37,0c-.12,0-.32-.19-.38-.55L5,25.38H7.14L8.72,39.25a3.14,3.14,0,0,0,.06.36Zm2.49,0A1.27,1.27,0,0,1,10,39.1L8.48,25.38h2.17l.79,13.83q0,.21,0,.4Zm4,0H12.81a3.44,3.44,0,0,1-.06-.48L12,25.38h2.17V39.61Zm2.72-.48a3.44,3.44,0,0,1-.06.48H15.47V25.38h2.17Zm2.57.48H18.15q0-.19,0-.4L19,25.38h2.17L19.58,39.1A1.27,1.27,0,0,1,19.43,39.61Zm2.49,0H20.84a3.12,3.12,0,0,0,.06-.36l1.58-13.87h2.16L22.3,39.06C22.24,39.42,22,39.61,21.92,39.61ZM25,39a.75.75,0,0,1-.73.58h-.76a2.46,2.46,0,0,0,.08-.33L26,25.38h2.15Zm2.11-15H17a48.26,48.26,0,0,0,5.24-3.15.66.66,0,0,0-.76-1.09A51.9,51.9,0,0,1,14,24H2.81a2.74,2.74,0,0,1-.68-2.57,3,3,0,0,1,2.51-1.95c1.26-.25,4.59-1,8.31-2a.66.66,0,1,0-.37-1.27c-3.31,1-6.31,1.61-7.78,1.91-.2-1.09-.34-3.45,2-4.45a28,28,0,0,1,4.63-1.06l.64-.12a.66.66,0,0,0-.24-1.3l-.64.12c-1.24.23-2.44.44-3.42.68A7.93,7.93,0,0,1,11.69,5.7a6.26,6.26,0,0,0,.7.86c.14.15.26.26.37.36a3.84,3.84,0,0,0,6.88,2.79,17.67,17.67,0,0,1,3.26,1,.61.61,0,0,1,.1.58c-.16.52-1.19,1.94-7.16,4a.66.66,0,1,0,.43,1.26,33.32,33.32,0,0,0,5.16-2.15c1.62-.89,2.55-1.76,2.84-2.66,0-.07,0-.13.05-.2a3.42,3.42,0,0,1,1.45,2.12c.24,1.21-.3,2.54-1.63,4a.66.66,0,0,0,1,.9,9.58,9.58,0,0,0,1.22-1.58c1.59,1.33,2.4,2.67,2.43,4A4.47,4.47,0,0,1,27.13,24Z"/></g></g></g></svg>