<svg xmlns="http://www.w3.org/2000/svg" viewBox="0 0 538.61 442.04"><defs><style>.cls-1,.cls-3{fill:#fff;}.cls-2{fill:#ee9da7;}.cls-3{stroke:#fff;stroke-miterlimit:10;stroke-width:0.25px;}.cls-4{opacity:0.3;}.cls-5{fill:#f1b5bc;}.cls-6{fill:#4c2c18;}.cls-7{fill:#95c2d1;}.cls-8{fill:#66a2b2;}</style></defs><title>logo</title><g id="Calque_2" data-name="Calque 2"><g id="Calque_1-2" data-name="Calque 1"><path class="cls-1" d="M187.69,381.24l-18.24,46.49,23.27,7.82S209.28,383.94,211,384.1,187.69,381.24,187.69,381.24Z"/><circle class="cls-2" cx="267.17" cy="256" r="138.77"/><polygon class="cls-1" points="509.93 389.77 9.42 399.77 38.42 271 529.93 246 509.93 389.77"/><path class="cls-2" d="M0,407.46,32.35,263.8,538.61,238,516.47,397.14ZM44.49,278.2,18.84,392.08l484.54-9.68L521.25,254Z"/><polygon class="cls-3" points="195.8 403.54 200.81 388.44 187.19 388.71 181.83 403.82 195.8 403.54"/><g class="cls-4"><path class="cls-5" d="M107.07,287.8q5.38,0,8.36,3a10.91,10.91,0,0,1,3,8.07q0,11.34-13.52,21a51.64,51.64,0,0,1-30.81,9.67,63.91,63.91,0,0,1-16-2.18,36.72,36.72,0,0,0-5.52,19.55q0,10.54,5.81,17t17,6.47q20.06,0,26.31-23.4h6.83q-1.6,13.52-12.72,23.84T66.52,381.11q-9.59,0-17.88-7t-8.28-20.42q0-13.37,10.17-29.21a36.1,36.1,0,0,1-11.77-10.75l3.92-4.36q1,1,2.76,3.05a29,29,0,0,0,9,6.83Q63,307.28,79.38,297.54T107.07,287.8ZM73.64,323.7a41.24,41.24,0,0,0,22.24-6q9.59-6,9.59-14a5.54,5.54,0,0,0-2-4.43,7.47,7.47,0,0,0-5-1.67q-8.87,0-19.77,7a57.2,57.2,0,0,0-17.29,16.93A33.56,33.56,0,0,0,73.64,323.7Z"/><path class="cls-5" d="M182.5,363.67l3.05,2.47a25,25,0,0,1-7.78,10.32q-5.31,4.22-9.59,4.21a8.31,8.31,0,0,1-6.76-3,11.77,11.77,0,0,1-2.47-7.78,62.18,62.18,0,0,1,1.6-12.35,65.61,65.61,0,0,1-14.68,16.86q-7.85,6.1-13.23,6.1-8.14,0-8.14-11.63,0-9.88,6.68-25.29t9.74-17.88l7,3.05a87.84,87.84,0,0,0-9,18.89q-3.05,9.3-3.05,12.43a6.64,6.64,0,0,0,2,5,6.39,6.39,0,0,0,4.58,1.89q5.81,0,14.46-10.68t17.66-31.9l7.41,3.34q-.29,1.16-6.61,16.86T169,363.45a7,7,0,0,0,1.38,4.72,3.79,3.79,0,0,0,2.76,1.6,11.44,11.44,0,0,0,2.11-.15,4.53,4.53,0,0,0,1.45-.58l1.24-.73a6.37,6.37,0,0,0,1.24-1l1.16-1q.29-.44,1.09-1.38T182.5,363.67Z"/><path class="cls-5" d="M229,330.31q8.14-6,14.24-6t9.45,3.71a13.47,13.47,0,0,1,3.34,9.38q0,15.7-11.26,29t-25.36,13.3q-6.25,0-9.88-2.18l3.49-6.25q7.55,1,9.45,1,7.85,0,14.68-9.16T244,344.34a8.81,8.81,0,0,0-2.11-6,6.92,6.92,0,0,0-5.45-2.4q-8,0-18.09,14.1t-18.89,35a366.9,366.9,0,0,0-15.33,44.4l-8.72-3.05q.29-.87,5.45-15t10.1-28.12q13.66-38.37,13.66-42a37.19,37.19,0,0,0-3.78-16.86l7.27-3.63a22.16,22.16,0,0,1,4.51,13.15q0,6.91-2.76,19.11Q220.86,336.34,229,330.31Z"/><path class="cls-5" d="M299.49,359l3.49,2.91a28,28,0,0,1-11.19,12.79q-7.71,4.8-14.9,4.8A16.57,16.57,0,0,1,265,375q-4.72-4.5-4.72-12.35t6.83-17a54.32,54.32,0,0,1,17.66-15.11q10.83-6,21.29-6,1.45,0,4.36.29l-.44,5.67q-16,.73-26.52,9.74t-10.54,19.18a9,9,0,0,0,9.45,9.45Q289,368.9,299.49,359Z"/><path class="cls-5" d="M375.5,365l3.34,2.47q-2,4.36-7.48,8.28t-10,3.92q-8.58,0-8.57-9a29.37,29.37,0,0,1,2.18-10l-5.38,5.52q-7.85,8-13.59,10.75a25.85,25.85,0,0,1-11.26,2.76q-5.53,0-8.36-3.12t-2.83-8.65q0-10.17,7.85-20.13a59.84,59.84,0,0,1,20.06-16.2,54.66,54.66,0,0,1,24.42-6.4l.29,4.8-6.11,1.31a52.33,52.33,0,0,0-23.33,11.63q-10.1,8.72-10.1,17.37t7,8.65q6.54,0,16.13-9.16a80.8,80.8,0,0,0,16-21.51l6.11,3.63q-9,18.17-9,23.11a4.63,4.63,0,0,0,1.38,3.42,4,4,0,0,0,2.76,1.38,7,7,0,0,0,1.82-.15,6.24,6.24,0,0,0,.87-.36,10.77,10.77,0,0,0,1.09-.65,12.5,12.5,0,0,0,1.16-.87q.51-.44,1.67-1.31T375.5,365Z"/><path class="cls-5" d="M440,364.83l3.63,3.2q-8.43,13.81-17.87,13.81-5.82,0-11.92-8.57t-6.1-14.1q0-3.49,10.46-7a22.34,22.34,0,0,0,7.2-4q3.27-2.69,3.27-5.6a5.84,5.84,0,0,0-1.6-4.43,5.65,5.65,0,0,0-4.07-1.53q-16,1.45-33.43,43l-8.87-3.05q0-6.25,16.93-50.58t24.05-53.63l7.12,2.62Q409.21,309.17,396,354.37q11.34-17,19.48-22.67T431,326a9.59,9.59,0,0,1,7.19,2.76,9.7,9.7,0,0,1,2.69,7,14.76,14.76,0,0,1-2.11,7.78,19.55,19.55,0,0,1-6,6.1,91.36,91.36,0,0,1-14,7.41q1.31,6.83,4.51,10.32a9.64,9.64,0,0,0,7.27,3.49Q432.76,370.93,440,364.83Z"/><path class="cls-5" d="M487.84,362.5l3.34,2.62a35,35,0,0,1-12.35,10.39,32.62,32.62,0,0,1-15.26,4.14q-7.41,0-11.92-4.36a15.25,15.25,0,0,1-4.51-11.48q0-13.37,14.17-26.31T490,324.57q9.59,0,9.59,7.56,0,7.85-10.1,15.84T461.1,362.5a11,11,0,0,0,4.07,5.23,9.92,9.92,0,0,0,5.67,1.89Q477.08,369.63,487.84,362.5Zm-27.47-4.36A77.25,77.25,0,0,0,480.57,348q8.43-6.1,8.43-11.19a5,5,0,0,0-4.8-4.8q-6.83,0-14.75,8.5T460.37,358.14Z"/></g><path class="cls-5" d="M110.07,282.8q5.38,0,8.36,3a10.91,10.91,0,0,1,3,8.07q0,11.34-13.52,21a51.64,51.64,0,0,1-30.81,9.67,63.91,63.91,0,0,1-16-2.18,36.72,36.72,0,0,0-5.52,19.55q0,10.54,5.81,17t17,6.47q20.06,0,26.31-23.4h6.83q-1.6,13.52-12.72,23.84T69.52,376.11q-9.59,0-17.88-7t-8.28-20.42q0-13.37,10.17-29.21a36.1,36.1,0,0,1-11.77-10.75l3.92-4.36q1,1,2.76,3.05a29,29,0,0,0,9,6.83Q66,302.28,82.38,292.54T110.07,282.8ZM76.64,318.7a41.24,41.24,0,0,0,22.24-6q9.59-6,9.59-14a5.54,5.54,0,0,0-2-4.43,7.47,7.47,0,0,0-5-1.67q-8.87,0-19.77,7a57.2,57.2,0,0,0-17.29,16.93A33.56,33.56,0,0,0,76.64,318.7Z"/><path class="cls-5" d="M185.5,358.67l3.05,2.47a25,25,0,0,1-7.78,10.32q-5.31,4.22-9.59,4.21a8.31,8.31,0,0,1-6.76-3,11.77,11.77,0,0,1-2.47-7.78,62.18,62.18,0,0,1,1.6-12.35,65.61,65.61,0,0,1-14.68,16.86q-7.85,6.1-13.23,6.1-8.14,0-8.14-11.63,0-9.88,6.68-25.29t9.74-17.88l7,3.05a87.84,87.84,0,0,0-9,18.89q-3.05,9.3-3.05,12.43a6.64,6.64,0,0,0,2,5,6.39,6.39,0,0,0,4.58,1.89q5.81,0,14.46-10.68t17.66-31.9l7.41,3.34q-.29,1.16-6.61,16.86T172,358.45a7,7,0,0,0,1.38,4.72,3.79,3.79,0,0,0,2.76,1.6,11.44,11.44,0,0,0,2.11-.15,4.53,4.53,0,0,0,1.45-.58l1.24-.73a6.37,6.37,0,0,0,1.24-1l1.16-1q.29-.44,1.09-1.38T185.5,358.67Z"/><path class="cls-5" d="M232,325.31q8.14-6,14.24-6t9.45,3.71a13.47,13.47,0,0,1,3.34,9.38q0,15.7-11.26,29t-25.36,13.3q-6.25,0-9.88-2.18l3.49-6.25q7.55,1,9.45,1,7.85,0,14.68-9.16T247,339.34a8.81,8.81,0,0,0-2.11-6,6.92,6.92,0,0,0-5.45-2.4q-8,0-18.09,14.1t-18.89,35a366.9,366.9,0,0,0-15.33,44.4l-8.72-3.05q.29-.87,5.45-15t10.1-28.12q13.66-38.37,13.66-42a37.19,37.19,0,0,0-3.78-16.86l7.27-3.63a22.16,22.16,0,0,1,4.51,13.15q0,6.91-2.76,19.11Q223.86,331.34,232,325.31Z"/><path class="cls-5" d="M302.49,354l3.49,2.91a28,28,0,0,1-11.19,12.79q-7.71,4.8-14.9,4.8A16.57,16.57,0,0,1,268,370q-4.72-4.5-4.72-12.35t6.83-17a54.33,54.33,0,0,1,17.66-15.11q10.83-6,21.29-6,1.45,0,4.36.29l-.44,5.67q-16,.73-26.52,9.74t-10.54,19.18a9,9,0,0,0,9.45,9.45Q292,363.9,302.49,354Z"/><path class="cls-5" d="M378.5,360l3.34,2.47q-2,4.36-7.48,8.28t-10,3.92q-8.58,0-8.57-9a29.37,29.37,0,0,1,2.18-10l-5.38,5.52q-7.85,8-13.59,10.75a25.85,25.85,0,0,1-11.26,2.76q-5.53,0-8.36-3.12t-2.83-8.65q0-10.17,7.85-20.13a59.84,59.84,0,0,1,20.06-16.2,54.66,54.66,0,0,1,24.42-6.4l.29,4.8-6.11,1.31a52.33,52.33,0,0,0-23.33,11.63q-10.1,8.72-10.1,17.37t7,8.65q6.54,0,16.13-9.16a80.8,80.8,0,0,0,16-21.51l6.11,3.63q-9,18.17-9,23.11a4.63,4.63,0,0,0,1.38,3.42,4,4,0,0,0,2.76,1.38,7,7,0,0,0,1.82-.15,6.24,6.24,0,0,0,.87-.36,10.77,10.77,0,0,0,1.09-.65,12.5,12.5,0,0,0,1.16-.87q.51-.44,1.67-1.31T378.5,360Z"/><path class="cls-5" d="M443,359.83l3.63,3.2q-8.43,13.81-17.87,13.81-5.82,0-11.92-8.57t-6.1-14.1q0-3.49,10.46-7a22.34,22.34,0,0,0,7.2-4q3.27-2.69,3.27-5.6a5.84,5.84,0,0,0-1.6-4.43,5.65,5.65,0,0,0-4.07-1.53q-16,1.45-33.43,43l-8.87-3.05q0-6.25,16.93-50.58t24.05-53.63l7.12,2.62Q412.21,304.17,399,349.37q11.34-17,19.48-22.67T434,321a9.59,9.59,0,0,1,7.19,2.76,9.7,9.7,0,0,1,2.69,7,14.76,14.76,0,0,1-2.11,7.78,19.55,19.55,0,0,1-6,6.1,91.36,91.36,0,0,1-14,7.41q1.31,6.83,4.51,10.32a9.64,9.64,0,0,0,7.27,3.49Q435.76,365.93,443,359.83Z"/><path class="cls-5" d="M490.84,357.5l3.34,2.62a35,35,0,0,1-12.35,10.39,32.62,32.62,0,0,1-15.26,4.14q-7.41,0-11.92-4.36a15.25,15.25,0,0,1-4.51-11.48q0-13.37,14.17-26.31T493,319.57q9.59,0,9.59,7.56,0,7.85-10.1,15.84T464.1,357.5a11,11,0,0,0,4.07,5.23,9.92,9.92,0,0,0,5.67,1.89Q480.08,364.63,490.84,357.5Zm-27.47-4.36A77.25,77.25,0,0,0,483.57,343q8.43-6.1,8.43-11.19a5,5,0,0,0-4.8-4.8q-6.83,0-14.75,8.5T463.37,353.14Z"/><path class="cls-6" d="M203.66,440.4l3.61-.08-.6-28.84-3.59.08,0-1.64,12.78-.27q6.53-.14,9.88,2.61a9,9,0,0,1,3.13,7.14,10.82,10.82,0,0,1-3,8.25q-3.31,3.28-9.5,3.41l-3.63.08.19,9.07,5.31-.11,0,1.64-14.57.3Zm12.19-10.78a6.31,6.31,0,0,0,5.79-3.55,12.86,12.86,0,0,0,1.36-6.33q-.13-6.09-4.22-7.89a7.71,7.71,0,0,0-3.27-.56l-3.19.07.38,18.33Z"/><path class="cls-6" d="M231.12,439.83l3.27-.07-.67-32.05-2.79.06,0-1.66,8.35-.17.7,33.71,3.53-.07,0,1.64-12.36.26Z"/><path class="cls-6" d="M265.19,437.37q0,1.74.9,1.72a2.18,2.18,0,0,0,1.64-1.08l1.11.88a4.79,4.79,0,0,1-2.86,2.06,7.21,7.21,0,0,1-1.76.21,4.39,4.39,0,0,1-2.31-.67,3.77,3.77,0,0,1-1.67-2,8.28,8.28,0,0,1-4.17,2.63,9.18,9.18,0,0,1-2.31.3,9.58,9.58,0,0,1-2.82-.38,7.87,7.87,0,0,1-2.53-1.21,5.59,5.59,0,0,1-2.36-4.59,5.13,5.13,0,0,1,2.18-4.41,9.26,9.26,0,0,1,5.58-1.69,9.42,9.42,0,0,1,5.84,1.62l-.1-5a6.52,6.52,0,0,0-.7-3.43,3.45,3.45,0,0,0-1.51-1.23,4.84,4.84,0,0,0-1.9-.32,9.62,9.62,0,0,0-1.67.15,8.37,8.37,0,0,0-1.13.31,3.68,3.68,0,0,0-1.39.74,2.44,2.44,0,0,1,1.52,1.44,2.69,2.69,0,0,1,.19,1,2.56,2.56,0,0,1-.21,1.09,2.6,2.6,0,0,1-.61.87,2.46,2.46,0,0,1-1.64.79,4,4,0,0,1-1.36-.16,2.65,2.65,0,0,1-.92-.55,2.52,2.52,0,0,1-.88-1.87,3.61,3.61,0,0,1,.36-1.8,4.64,4.64,0,0,1,1-1.28,7.37,7.37,0,0,1,1.5-1,11.18,11.18,0,0,1,1.79-.73,12.55,12.55,0,0,1,3.54-.62q4.72-.1,7,1.76a6.6,6.6,0,0,1,2.38,5.28Zm-5.45-4.76a5.5,5.5,0,0,0-3.94-1.66,4.53,4.53,0,0,0-3.17,1.06,4.2,4.2,0,0,0-1,3.22q.07,3.25,2.37,3.9a4.27,4.27,0,0,0,1.33.18,5.6,5.6,0,0,0,3.62-1.54,7.2,7.2,0,0,0,.88-1Z"/><path class="cls-6" d="M270.56,439l3.4-.07-.38-18.2-3.11.06,0-1.64,8.67-.18.42,19.84,3.4-.07,0,1.64-12.36.26Zm5.67-24.25a2.85,2.85,0,0,1-2.08-.82,2.37,2.37,0,0,1-.88-1.71,3.88,3.88,0,0,1,.19-1.46,2.87,2.87,0,0,1,.6-.94,2.8,2.8,0,0,1,2-.88,2.66,2.66,0,0,1,2.7,1.71,2.81,2.81,0,0,1,.25,1.14,2.92,2.92,0,0,1-.2,1.15,2.79,2.79,0,0,1-.58.92A2.83,2.83,0,0,1,276.23,414.76Z"/><path class="cls-6" d="M289.22,438.72a1.92,1.92,0,0,0-.72,1.55l-2,0,0-6.32,1.93,0a4.39,4.39,0,0,0,1.94,3.17,8.18,8.18,0,0,0,5.43,1.69q3-.06,3.8-1.88a2.68,2.68,0,0,0,.21-1.1q0-1.05-1.48-1.9a27.49,27.49,0,0,0-4.77-2,14,14,0,0,1-5.24-2.93,6,6,0,0,1-2-4.36,5.35,5.35,0,0,1,2.36-4.61,9.19,9.19,0,0,1,5.43-1.77,7.75,7.75,0,0,1,5.08,1.45,1.57,1.57,0,0,0,.9-.94,1.34,1.34,0,0,0,.11-.61l1.6,0,.12,5.86-1.85,0a4.65,4.65,0,0,0-2-3,6.58,6.58,0,0,0-3.94-1,5,5,0,0,0-2.94.9,2.33,2.33,0,0,0-1,2,2.6,2.6,0,0,0,1.26,2,14.77,14.77,0,0,0,3.76,1.74,38,38,0,0,1,3.72,1.39,10.24,10.24,0,0,1,2.33,1.43,5.63,5.63,0,0,1,2.11,4.41q.08,4-4.29,5.89a9.29,9.29,0,0,1-3.49.77A10.23,10.23,0,0,1,289.22,438.72Z"/><path class="cls-6" d="M306.39,438.25l3.4-.07-.38-18.2-3.11.06,0-1.64,8.67-.18.42,19.84,3.4-.07,0,1.64-12.36.26ZM312.06,414a2.85,2.85,0,0,1-2.08-.82,2.37,2.37,0,0,1-.88-1.71,3.88,3.88,0,0,1,.19-1.46,2.85,2.85,0,0,1,.6-.94,2.8,2.8,0,0,1,2-.88,2.66,2.66,0,0,1,2.7,1.71,2.81,2.81,0,0,1,.25,1.14,3,3,0,0,1-.2,1.15,2.87,2.87,0,0,1-2.64,1.82Z"/><path class="cls-6" d="M334.58,419.61a11.06,11.06,0,0,0-5,3.23l.31,14.95,4.6-.1,0,1.62-13.22.28,0-1.62,3.13-.07L324,419.68l-3.15.07,0-1.64,8.65-.18.06,2.9a12.08,12.08,0,0,1,5-3.09,8.17,8.17,0,0,1,2.22-.32,3.3,3.3,0,0,1,2.24.79,2.88,2.88,0,0,1,1,2.27,2.8,2.8,0,1,1-5.6.12A3.09,3.09,0,0,1,334.58,419.61Z"/><path class="cls-6" d="M346.55,437.52a1.92,1.92,0,0,0-.72,1.55l-2,0,0-6.32,1.93,0a4.39,4.39,0,0,0,1.94,3.17,8.19,8.19,0,0,0,5.43,1.69q3-.06,3.8-1.88a2.69,2.69,0,0,0,.21-1.1q0-1.05-1.48-1.9a27.49,27.49,0,0,0-4.77-2,14,14,0,0,1-5.24-2.93,6,6,0,0,1-2-4.36,5.35,5.35,0,0,1,2.36-4.61,9.19,9.19,0,0,1,5.43-1.77,7.76,7.76,0,0,1,5.08,1.45,1.58,1.58,0,0,0,.9-.94,1.36,1.36,0,0,0,.11-.61l1.6,0,.12,5.86-1.85,0a4.64,4.64,0,0,0-2-3,6.58,6.58,0,0,0-3.94-1,5,5,0,0,0-2.94.9,2.33,2.33,0,0,0-1,2,2.6,2.6,0,0,0,1.26,2,14.78,14.78,0,0,0,3.76,1.74,38,38,0,0,1,3.73,1.39,10.22,10.22,0,0,1,2.33,1.43,5.62,5.62,0,0,1,2.11,4.41q.08,4-4.29,5.89a9.28,9.28,0,0,1-3.49.77A10.22,10.22,0,0,1,346.55,437.52Z"/><path class="cls-6" d="M382.36,436.77a1.92,1.92,0,0,0-.72,1.55l-2,0,0-6.32,1.93,0a4.39,4.39,0,0,0,1.94,3.17,8.18,8.18,0,0,0,5.43,1.69q3-.06,3.8-1.88a2.69,2.69,0,0,0,.21-1.1q0-1.05-1.48-1.9a27.58,27.58,0,0,0-4.77-2,14,14,0,0,1-5.24-2.93,6,6,0,0,1-2-4.36,5.35,5.35,0,0,1,2.36-4.61,9.2,9.2,0,0,1,5.43-1.77,7.76,7.76,0,0,1,5.08,1.45,1.58,1.58,0,0,0,.9-.94,1.36,1.36,0,0,0,.11-.61l1.6,0,.12,5.86-1.85,0a4.64,4.64,0,0,0-2-3,6.57,6.57,0,0,0-3.94-1,5,5,0,0,0-2.94.9,2.33,2.33,0,0,0-1,2,2.6,2.6,0,0,0,1.26,2,14.77,14.77,0,0,0,3.76,1.74,38,38,0,0,1,3.73,1.39,10.23,10.23,0,0,1,2.33,1.43,5.62,5.62,0,0,1,2.11,4.41q.08,4-4.29,5.89a9.28,9.28,0,0,1-3.49.77A10.23,10.23,0,0,1,382.36,436.77Z"/><path class="cls-6" d="M416.88,435.53a9.35,9.35,0,0,1-6.33,2.61,10.07,10.07,0,0,1-5.17-1.19q-3.15-1.76-3.23-6l-.27-12.85-2.77.06,0-1.64,8.23-.17.32,15.45q.09,4.43,4.19,4.34a6.61,6.61,0,0,0,5-2.71l-.33-15.64-3.63.08,0-1.64,9-.19.42,19.84,2.71-.06,0,1.64-8.12.17Z"/><path class="cls-6" d="M440.61,435.49a8.2,8.2,0,0,0,6.12-2.56l1.11,1a9.18,9.18,0,0,1-5,3.21,12.42,12.42,0,0,1-3.19.4,12.56,12.56,0,0,1-4.16-.67,10.45,10.45,0,0,1-7.36-10.41,10.26,10.26,0,0,1,3.21-8.11,12,12,0,0,1,8.25-3.07,11,11,0,0,1,5.19,1.07q2.7,1.35,2.75,3.7a2.82,2.82,0,0,1-.78,2.1,2.34,2.34,0,0,1-1.65.81,4.34,4.34,0,0,1-1.4-.15,2.63,2.63,0,0,1-.89-.5,2.27,2.27,0,0,1-.9-1.85,2.68,2.68,0,0,1,1.48-2.68,6.66,6.66,0,0,0-3.61-.89q-6,.13-5.85,9.55.14,6.63,3.83,8.49A6.08,6.08,0,0,0,440.61,435.49Z"/><path class="cls-6" d="M463.6,416.91a11.06,11.06,0,0,0-5,3.23l.31,14.95,4.6-.1,0,1.62-13.23.28,0-1.62,3.13-.07L453,417l-3.15.07,0-1.64,8.65-.18.06,2.9a12.1,12.1,0,0,1,5-3.09,8.19,8.19,0,0,1,2.22-.32,3.29,3.29,0,0,1,2.24.79,2.87,2.87,0,0,1,1,2.27,2.8,2.8,0,1,1-5.61.12A3.12,3.12,0,0,1,463.6,416.91Z"/><path class="cls-6" d="M484.4,434.6a9.59,9.59,0,0,0,6.86-3.25l1.13,1a11,11,0,0,1-6,3.91,14,14,0,0,1-3.27.38,11.53,11.53,0,0,1-4.22-.76,10.72,10.72,0,0,1-3.74-2.26,10.89,10.89,0,0,1-3.36-8,10.47,10.47,0,0,1,3-8,11.2,11.2,0,0,1,8-3.21q7.22-.15,9.24,5.85a15,15,0,0,1,.68,4.33l-15.2.32v.63q.14,6.49,3.83,8.45A6.09,6.09,0,0,0,484.4,434.6ZM487.08,423a11,11,0,0,0-1.14-5.11,3.41,3.41,0,0,0-3.27-1.71q-4.55.1-5,7ZM480,410.69l4.47-7.11a4,4,0,0,1,.82-1,2,2,0,0,1,1-.42,2.83,2.83,0,0,1,1,0,2.24,2.24,0,0,1,.82.37,2,2,0,0,1,.91,1.43,2.53,2.53,0,0,1-1.06,2.56l-7.33,4.82Z"/><path class="cls-6" d="M500.63,434.3a1.93,1.93,0,0,0-.72,1.55l-2,0,0-6.32,1.93,0a4.39,4.39,0,0,0,1.94,3.17,8.18,8.18,0,0,0,5.43,1.69q3-.06,3.8-1.88a2.69,2.69,0,0,0,.21-1.1q0-1.05-1.48-1.9a27.54,27.54,0,0,0-4.77-2,14,14,0,0,1-5.24-2.93,6,6,0,0,1-2-4.36,5.35,5.35,0,0,1,2.36-4.61,9.2,9.2,0,0,1,5.43-1.77,7.75,7.75,0,0,1,5.08,1.45,1.57,1.57,0,0,0,.9-.94,1.35,1.35,0,0,0,.11-.61l1.6,0,.12,5.86-1.85,0a4.65,4.65,0,0,0-2-3,6.58,6.58,0,0,0-3.94-1,5,5,0,0,0-2.94.9,2.33,2.33,0,0,0-1,2,2.6,2.6,0,0,0,1.26,2,14.79,14.79,0,0,0,3.76,1.74,37.92,37.92,0,0,1,3.72,1.39,10.25,10.25,0,0,1,2.33,1.43,5.62,5.62,0,0,1,2.11,4.41q.08,4-4.29,5.89a9.32,9.32,0,0,1-3.49.77A10.23,10.23,0,0,1,500.63,434.3Z"/><path class="cls-1" d="M270.67,2c-2,11.5-16.5,24-23.5,32.5-10.5,13-20.5,9.5-34,16-12,6-20,17.5-18,31.5,1,8.5,1,11.5-4.5,18.5-4.5,5.5-7.5,9-9.5,16s-2,12.5-6,18.5c-4.5,6.5-9.5,13-14.5,19-9.5,11.5-10.5,21.5-7,35.5,4,14,8.5,27,10.5,42,2,16.5,8,28,17.5,41.5a245,245,0,0,1,15.5,24c5,9,4,15.5,14.5,16.5,17.5,1.5,34.5,4,52.5,4h36.5c12.5,0,33,4.5,41-5.5,9.5-11.5,17-31.5,19.5-46.5,4.5-27,13-55.51,20-82,1.5-7,1-10.49,0-17.49-1-6-7-13.5-10.5-18.5-5-8-8-17.5-13-25-4-6-9.5-8.5-15.5-13-17-13.5-25.5-39-34.5-58.5-5-11.5-10-15.5-20.5-21.5-11-6.5-11.5-18.5-15-29.5Z"/><path class="cls-6" d="M184.86,151.78c-24.79,4.13-23.41,23.41-2.75,31.67,15.14,6.88,37.18,8.26,55.08,9.64,30.29,1.38,68.84,6.88,97.76-5.51,11-2.76,35.8-15.15,30.29-30.29-5.5-11-57.83-12.39-67.47-12.39-35.8-1.38-75.73,1.38-112.91,6.88Z"/><path class="cls-2" d="M269.76,24.69c3.2,7.48,5.88,9.62,12.83,11.76,7.48,2.14,10.69,1.6,13.9,9.62s3.21,11.76,8,18.17c4.81,5.88,5.88,13.36,10.16,19.78,3.75,6.41,8.55,10.69,12.29,17.64,4.28,8,9.62,8.55,16.57,14.43,10.69,9.09,18.71,26.72,14.43,41.15-4.81,13.9-23.51,16-36.34,20.31-19.77,6.95-41.16,5.88-62,5.88-27.25,0-49.7-4.81-75.36-15-5.34-2.14-18.17-5.35-15-12.83,2.67-5.88,13.36-4.28,16-11.76,5.34-13.36-5.35-25.66,8.55-37.41,6.41-6.41,12.83-6.95,10.69-18.17-1.6-9.09-8-14.43-1.07-23.52,11.76-15.5,33.67-8,44.9-24.05C258,26.83,260.57,21.56,273,12.93,273,12.93,266.55,17.21,269.76,24.69Z"/><path class="cls-5" d="M266.71,32.21c3.74,17.64-19.78,18.7-30.46,23-16,5.35-21.38,13.36-23,28.86,6.95,0,13.9-9.62,20.84-12.29,7.48-3.21,15-2.14,23-4.28,17.1-4.28,17.1-23,10.69-36.88"/><path class="cls-5" d="M282.75,62.14c-10.6,22.78-31.54,17.64-44.36,21.91-15,4.81-39,25.12-41.15,41.16,11.76,1.6,21.91-17.11,32.6-20.85,11.22-3.74,23,2.14,34.2.54,25.12-3.21,26.19-40.09,25.12-58.79-1.6,5.35-4.81,10.69-6.41,16Z"/><path class="cls-5" d="M299.33,81.83c0,8.35-5.27,19.68-9.94,26.24-9.36,12.52-25.75,10.14-39.2,12.52-19.89,3.58-50.31,12.52-63.18,29.81-15.8,22.66,26.91,22.66,37.44,22.66,24,0,32.18-20.87,52.66-28.62,7.61-3,15.79-2.38,22.23-7.75,6.43-6.56,8.19-17.89,8.78-26.83,1.17-14.91-3.51-25-7-38.76-.59,3-1.76,5.37-2.34,8.35Z"/><path class="cls-5" d="M323,116.41c-2.38,21.46.6,31-21.46,39.95-10.73,3.58-42.93,11.33-45.91,22.06,9.54,3.58,22.66,1.19,32.79,1.19,11.92.6,24.45.6,35.18-6,17.89-10.73,25.64-51.28,0-58.43Z"/><polygon class="cls-7" points="160.83 175.45 198.99 194.53 227 309.02 213.3 309.02 160.83 175.45"/><polygon class="cls-7" points="318.24 309.02 332.55 309.02 374.27 170.68 342.09 189.76 318.24 309.02"/><polygon class="cls-7" points="208.53 194.53 241.92 199.31 252.86 309.02 237.15 309.02 208.53 194.53"/><polygon class="cls-7" points="299.16 199.3 327.78 194.53 309.08 309.02 294.39 309.02 299.16 199.3"/><polygon class="cls-7" points="250.68 199.02 288.03 199.02 279.29 309.02 261 309.02 250.68 199.02"/><polygon class="cls-8" points="166.13 181.49 215.09 307.42 217.41 307.42 171.26 184.55 166.13 181.49"/><polygon class="cls-8" points="210.62 196.95 215.41 197.61 240.71 307.42 238.07 307.42 210.62 196.95"/><polygon class="cls-8" points="252.86 200.92 262.71 307.42 266.02 307.42 256.63 200.92 252.86 200.92"/><polygon class="cls-8" points="325.11 196.95 307.12 307.42 303.91 307.42 321.68 198.07 325.11 196.95"/><polygon class="cls-8" points="370.29 175.44 329.82 307.42 326.18 307.42 366.03 179.01 370.29 175.44"/></g></g></svg>