<svg xmlns="http://www.w3.org/2000/svg" viewBox="0 0 38.38 43.89"><defs><style>.cls-1{fill:#010101;}</style></defs><title>wedding-cake</title><g id="Calque_2" data-name="Calque 2"><g id="Accueil"><g id="header"><path class="cls-1" d="M37.6,33.55h-3V23.07a.78.78,0,0,0-.78-.78H30V14.16a.78.78,0,0,0-.78-.78H25.1v-6a.78.78,0,0,0-.78-.78H21.7A6.78,6.78,0,0,0,23,5.13a3.71,3.71,0,0,0,.57-2.95A2.81,2.81,0,0,0,20.89,0a2.58,2.58,0,0,0-1.7.66A2.58,2.58,0,0,0,17.49,0a2.81,2.81,0,0,0-2.67,2.18,3.71,3.71,0,0,0,.57,2.95A6.77,6.77,0,0,0,16.67,6.6H14.06a.78.78,0,0,0-.78.78v6H9.2a.78.78,0,0,0-.78.78v8.13H4.57a.78.78,0,0,0-.78.78V33.55h-3a.78.78,0,1,0,0,1.56h7c1.35,1.93,5.11,2.94,8.55,3.27v1.2l-3.86,2.9a.78.78,0,0,0,.47,1.4H25.45a.78.78,0,0,0,.47-1.4l-3.86-2.9v-1.2c3.44-.33,7.19-1.34,8.55-3.27h7a.78.78,0,0,0,0-1.56ZM14.84,8.16h8.69V9.29H14.84Zm5.36,8.1c-.43.64-.64.9-1,.9s-.59-.26-1-.9a3.88,3.88,0,0,0-1.24-1.32h4.51A3.88,3.88,0,0,0,20.2,16.26Zm3.33-2.88H14.84V10.85h8.69v2.52ZM10,16.78l.23.34a2.79,2.79,0,0,0,2.31,1.6,2.79,2.79,0,0,0,2.31-1.6l.21-.3a1.62,1.62,0,0,1,.51-.53.63.63,0,0,1,.3-.07c.38,0,.59.26,1,.9a2.79,2.79,0,0,0,2.31,1.6,2.79,2.79,0,0,0,2.31-1.6l.09-.13a3.77,3.77,0,0,1,.42-.54.68.68,0,0,1,.51-.23c.38,0,.59.26,1,.9a2.79,2.79,0,0,0,2.31,1.6,2.79,2.79,0,0,0,2.31-1.6l.24-.34v5.51H10ZM32.5,23.85a4.77,4.77,0,0,0-1.68,1.25,2.25,2.25,0,0,1-3.76,0,4.78,4.78,0,0,0-1.68-1.25Zm-5.64-7.59c-.43.64-.64.9-1,.9s-.59-.26-1-.9a3.88,3.88,0,0,0-1.24-1.32h4.52A3.87,3.87,0,0,0,26.86,16.26ZM14.79,14.94a3.88,3.88,0,0,0-1.24,1.32c-.43.64-.64.9-1,.9s-.59-.26-1-.9a3.88,3.88,0,0,0-1.24-1.32ZM13,23.85a4.78,4.78,0,0,0-1.68,1.25,2.4,2.4,0,0,1-1.88,1,2.4,2.4,0,0,1-1.88-1,4.77,4.77,0,0,0-1.68-1.25Zm4.31,1.25a4.78,4.78,0,0,0-1.68-1.25h7.12a4.78,4.78,0,0,0-1.68,1.25,2.4,2.4,0,0,1-1.88,1,2,2,0,0,1-.85-.17,2.61,2.61,0,0,1-.69-.5Zm-1-22.53a1.27,1.27,0,0,1,1.15-1,1.24,1.24,0,0,1,1,.71.78.78,0,0,0,.67.38h0a.78.78,0,0,0,.67-.38,1.24,1.24,0,0,1,1-.71,1.27,1.27,0,0,1,1.15,1c.24,1-.39,2.47-2.86,3.92C16.73,5,16.09,3.52,16.34,2.56Zm5,34.32h0a.78.78,0,0,0-.78.78V40a.78.78,0,0,0,.31.62l2.3,1.73H15.26l2.3-1.73a.78.78,0,0,0,.31-.62V37.66a.78.78,0,0,0-.78-.78h0a16.68,16.68,0,0,1-7-1.77H28.27A16.68,16.68,0,0,1,21.29,36.88ZM33,33.55H5.35V25.32a3.44,3.44,0,0,1,1.1.87,3.89,3.89,0,0,0,3,1.48,3.89,3.89,0,0,0,3-1.48,2.4,2.4,0,0,1,1.88-1,2.4,2.4,0,0,1,1.88,1,3.77,3.77,0,0,0,6,0,2.25,2.25,0,0,1,3.76,0,3.77,3.77,0,0,0,6,0,3.43,3.43,0,0,1,1.1-.87v8.23Z"/></g></g></g></svg>